<?xml version="1.0" encoding="UTF-8"?>
<svg id="Layer_2" data-name="Layer 2" xmlns="http://www.w3.org/2000/svg" viewBox="0 0 500.08 500.55">
  <defs>
    <style>
      .cls-1 {
        fill: #b6e5ef;
        stroke-width: 0px;
      }
    </style>
  </defs>
  <g id="BACKGROUND">
    <g>
      <g>
        <g>
          <path class="cls-1" d="m16,17.47v442.35h1V17.47h-1Zm0,0v441.35h1V17.47h-1Zm0-17.47v500.55h1V0h-1Zm0,17.47v441.35h1V17.47h-1Z"/>
          <path class="cls-1" d="m58.27,59.74v354.73h1V59.74h-1Zm0,0v353.73h1V59.74h-1Zm0-42.27v482.08h1V17.47h-1Zm0,0v482.08h1V17.47h-1Zm0,0v482.08h1V17.47h-1Zm0,0v482.08h1V17.47h-1Zm0,0v482.08h1V17.47h-1Zm0,0v482.08h1V17.47h-1Zm0,0v482.08h1V17.47h-1Zm0,0v482.08h1V17.47h-1Zm-20.66,483.08h1V0h-1v500.55ZM58.27,17.47v482.08h1V17.47h-1Zm0,0v482.08h1V17.47h-1Zm0,0v482.08h1V17.47h-1Zm0,0v482.08h1V17.47h-1Zm0,0v482.08h1V17.47h-1Zm0,0v482.08h1V17.47h-1Zm0,0v482.08h1V17.47h-1Zm0-17.47v500.55h1V0h-1Zm0,59.74v353.73h1V59.74h-1Z"/>
          <path class="cls-1" d="m99.01,100.48v273.25h1V100.48h-1Zm0,0v272.25h1V100.48h-1Zm0-100.48v500.55h1V0h-1Zm0,163.6v209.13h1v-209.13h-1Zm0,20.66v188.47h1v-188.47h-1Zm0-40.74v249.88h1v-249.88h-1Zm0,0v269.95h1V143.52h-1Zm-20.67,357.03h1V0h-1v500.55Zm20.67-357.03v269.95h1V143.52h-1Zm0,20.08v209.13h1v-209.13h-1Zm0,20.66v188.47h1v-188.47h-1Zm0-20.66v209.13h1v-209.13h-1Zm0-63.12v272.25h1V100.48h-1Z"/>
        </g>
        <g>
          <path class="cls-1" d="m142.05,143.52v189.17h1v-189.17h-1Zm0-83.78v312.99h1V59.74h-1Zm-20.66,440.81h1V0h-1v500.55ZM142.05,0v500.55h1V0h-1Zm0,143.52v188.17h1v-188.17h-1Z"/>
          <path class="cls-1" d="m182.79,184.26v107.7h1v-107.7h-1Zm0-124.52v292.62h1V59.74h-1Zm-20.66,440.81h1V0h-1v500.55ZM182.79,0v500.55h1V0h-1Zm0,184.26v106.7h1v-106.7h-1Z"/>
          <path class="cls-1" d="m228.14,229.61v20.07h1v-20.07h-1Zm0-169.87v271.95h1V59.74h-1Zm-20.67,440.81h1V0h-1v500.55ZM228.14,0v500.55h1V0h-1Z"/>
          <path class="cls-1" d="m248.21,228.61v21.07h1v-21.07h-1Zm0,0v20.07h1v-20.07h-1Zm20.67-85.09v147.44h1v-147.44h-1Zm0-83.78v312.99h1V59.74h-1Zm0-1v313.99h1V58.74h-1Zm0-41.27v355.26h1V17.47h-1Zm0,0v355.26h1V17.47h-1Zm0-17.47v372.73h1V0h-1Zm0,0v352.36h1V0h-1Zm0,0v331.69h1V0h-1Zm0,0v331.69h1V0h-1Zm0,0v500.55h1V0h-1Zm0,59.74v271.95h1V59.74h-1Zm-20.67,440.81h1V0h-1v500.55Zm20.67-440.81v271.95h1V59.74h-1Zm0-59.74v311.62h1V0h-1Zm0,0v331.69h1V0h-1Zm0,0v331.69h1V0h-1Zm0,0v372.73h1V0h-1Zm0,17.47v355.26h1V17.47h-1Zm0,0v355.26h1V17.47h-1Zm0,0v355.26h1V17.47h-1Zm0,42.27v312.99h1V59.74h-1Zm0,40.74v272.25h1V100.48h-1Zm-20.67,128.13v20.07h1v-20.07h-1Zm0,0v20.07h1v-20.07h-1Z"/>
          <path class="cls-1" d="m311.15,184.26v23.68h1v-23.68h-1Zm0,0v23.68h1v-23.68h-1Zm0,0v23.68h1v-23.68h-1Zm0,0v23.68h1v-23.68h-1Zm0,0v23.68h1v-23.68h-1Zm-20.66,107.7h1v-108.7h-1v108.7Zm20.66-107.7v23.68h1v-23.68h-1Zm0,0v23.68h1v-23.68h-1Zm0,0v23.68h1v-23.68h-1Zm0,0v23.68h1v-23.68h-1Zm0,0v23.68h1v-23.68h-1Zm0,0v23.68h1v-23.68h-1Zm0,0v23.68h1v-23.68h-1Zm0,0v23.68h1v-23.68h-1Zm0,0v23.68h1v-23.68h-1Zm-20.66,106.7h1v-107.7h-1v107.7Zm20.66-106.7v23.68h1v-23.68h-1Zm0,0v23.68h1v-23.68h-1Zm0,0v23.68h1v-23.68h-1Zm0,0v23.68h1v-23.68h-1Zm0,0v23.68h1v-23.68h-1Zm0,0v23.68h1v-23.68h-1Zm0,0v23.68h1v-23.68h-1Zm0,0v23.68h1v-23.68h-1Zm0,0v23.68h1v-23.68h-1Zm-20.66,106.7h1v-107.7h-1v107.7Zm20.66-106.7v23.68h1v-23.68h-1Zm0,0v23.68h1v-23.68h-1Zm0,0v23.68h1v-23.68h-1Zm0,0v23.68h1v-23.68h-1Zm0-83.78v231.21h1V100.48h-1Zm0-40.74v271.95h1V59.74h-1Zm0-42.27v294.15h1V17.47h-1Zm0,0v190.47h1V17.47h-1ZM290.49,0v59.74h1V0h-1Zm20.66,0v207.94h1V0h-1Zm-20.66,0v59.74h1V0h-1Zm0,269.35v21.61h1v-21.61h-1Zm0-269.35v59.74h1V0h-1Zm20.66,0v207.94h1V0h-1Zm-20.66,0v59.74h1V0h-1Zm0,207.94v83.02h1v-83.02h-1Zm20.66-190.47v166.79h1V17.47h-1Zm-20.66,190.47v83.02h1v-83.02h-1Zm20.66-190.47v166.79h1V17.47h-1Zm-20.66,190.47v83.02h1v-83.02h-1ZM311.15,0v500.55h1V0h-1Zm0,184.26v23.68h1v-23.68h-1Zm-20.66,316.29h1V0h-1v500.55Zm20.66-316.29v23.68h1v-23.68h-1Zm0,0v23.68h1v-23.68h-1Zm0,0v23.68h1v-23.68h-1Zm-20.66,106.7h1v-106.7h-1v106.7Zm20.66-106.7v23.68h1v-23.68h-1Zm0-166.79v165.79h1V17.47h-1Zm-20.66,190.47v83.02h1v-83.02h-1Zm20.66-190.47v166.79h1V17.47h-1Zm-20.66,190.47v83.02h1v-83.02h-1Zm0-207.94v59.74h1V0h-1Zm20.66,0v184.26h1V0h-1Zm-20.66,0v59.74h1V0h-1Zm0,228.61v62.35h1v-62.35h-1Zm0-228.61v59.74h1V0h-1Zm20.66,0v207.94h1V0h-1Zm-20.66,0v59.74h1V0h-1Zm20.66,17.47v190.47h1V17.47h-1Zm0,0v190.47h1V17.47h-1Zm0,42.27v271.95h1V59.74h-1Zm0,0v271.95h1V59.74h-1Zm0,82.78v209.84h1v-209.84h-1Zm0,41.74v23.68h1v-23.68h-1Zm0,0v23.68h1v-23.68h-1Zm0,0v23.68h1v-23.68h-1Zm0,0v23.68h1v-23.68h-1Zm0,0v23.68h1v-23.68h-1Zm-20.66,106.7h1v-107.7h-1v107.7Zm20.66-106.7v23.68h1v-23.68h-1Zm0,0v23.68h1v-23.68h-1Zm0,0v23.68h1v-23.68h-1Zm0,0v23.68h1v-23.68h-1Zm0,0v23.68h1v-23.68h-1Zm0,0v23.68h1v-23.68h-1Zm0,0v23.68h1v-23.68h-1Zm0,0v23.68h1v-23.68h-1Zm0,0v23.68h1v-23.68h-1Zm-20.66,106.7h1v-107.7h-1v107.7Zm20.66-106.7v23.68h1v-23.68h-1Zm0,0v23.68h1v-23.68h-1Zm0,0v23.68h1v-23.68h-1Zm0,0v23.68h1v-23.68h-1Z"/>
          <path class="cls-1" d="m331.22,142.52v190.17h1v-190.17h-1Zm0,0v189.17h1v-189.17h-1Zm0,0v189.17h1v-189.17h-1Zm20.67-42.04v43.04h1v-43.04h-1Zm-20.67,82.78v24.68h1v-24.68h-1Zm20.67-83.78v44.04h1v-44.04h-1Zm-20.67,63.12v169.09h1v-169.09h-1Zm20.67-102.86v83.78h1V59.74h-1Zm-20.67,102.86v169.09h1v-169.09h-1Zm20.67-102.86v83.78h1V59.74h-1Zm-20.67,102.86v169.09h1v-169.09h-1Zm0-162.6v162.6h1V0h-1Zm20.67,0v162.6h1V0h-1Zm-20.67,162.6v169.09h1v-169.09h-1Zm20.67-102.86v83.78h1V59.74h-1Zm-20.67,83.78v188.17h1v-188.17h-1Zm0-1v189.17h1v-189.17h-1Zm0,0v189.17h1v-189.17h-1Zm0-142.52v500.55h1V0h-1Zm20.67,0v500.55h1V0h-1Zm-20.67,142.52v189.17h1v-189.17h-1Zm0,0v189.17h1v-189.17h-1Zm0,1v188.17h1v-188.17h-1Zm20.67-83.78v63.12h1v-63.12h-1Zm-20.67,102.86v169.09h1v-169.09h-1Zm20.67-123.52v104.44h1V39.08h-1Zm-20.67,123.52v169.09h1v-169.09h-1Zm20.67-102.86v83.78h1V59.74h-1Zm-20.67,102.86v169.09h1v-169.09h-1Zm20.67-102.86v83.78h1V59.74h-1Zm-20.67,102.86v169.09h1v-169.09h-1Zm20.67-102.86v83.78h1V59.74h-1Zm-20.67,102.86v169.09h1v-169.09h-1Zm20.67-62.12v43.04h1v-43.04h-1Zm-20.67,42.04v106.16h1v-106.16h-1Zm0,0v189.17h1v-189.17h-1Zm0,0v189.17h1v-189.17h-1Z"/>
        </g>
        <g>
          <path class="cls-1" d="m372.26,99.48v274.25h1V99.48h-1Zm0,0v273.25h1V99.48h-1Zm0,0v273.25h1V99.48h-1Zm0,0v273.25h1V99.48h-1Zm0,0v273.25h1V99.48h-1Zm0,0v273.25h1V99.48h-1Zm0,0v273.25h1V99.48h-1Zm20.67-82.01v104.39h1V17.47h-1Zm-20.67,105.39v249.87h1V122.86h-1Zm0-1v250.87h1V121.86h-1Zm0,0v250.87h1V121.86h-1Zm0,0v250.87h1V121.86h-1Zm0-121.86v500.55h1V0h-1Zm0,143.52v20.08h1v-20.08h-1ZM392.93,0v500.55h1V0h-1Zm-20.67,184.26h1v-40.74h-1v40.74Zm0-62.4v250.87h1V121.86h-1Zm0,0v250.87h1V121.86h-1Zm0,0v250.87h1V121.86h-1Zm0,0v250.87h1V121.86h-1Zm0-22.38v273.25h1V99.48h-1Zm0,0v273.25h1V99.48h-1Zm0,0v273.25h1V99.48h-1Zm0,0v273.25h1V99.48h-1Zm0,0v273.25h1V99.48h-1Zm0,0v273.25h1V99.48h-1Zm0,0v273.25h1V99.48h-1Z"/>
          <path class="cls-1" d="m413,58.74v355.73h1V58.74h-1Zm0,0v354.73h1V58.74h-1Zm0,0v354.73h1V58.74h-1Zm0,0v354.73h1V58.74h-1Zm0,0v354.73h1V58.74h-1Zm0,0v354.73h1V58.74h-1Zm0,0v354.73h1V58.74h-1Zm0,40.74v313.99h1V99.48h-1Zm0,22.38v291.61h1V121.86h-1Zm0,0v291.61h1V121.86h-1Zm0,0v291.61h1V121.86h-1Zm0,62.4v23.68h1v-23.68h-1ZM433.66,0v500.55h1V0h-1Zm-20.66,248.68h1v-64.42h-1v64.42Zm0-64.42v23.68h1v-23.68h-1Zm0-184.26v500.55h1V0h-1Zm0,121.86v291.61h1V121.86h-1Zm0,0v291.61h1V121.86h-1Zm0,0v291.61h1V121.86h-1Zm0-21.38v312.99h1V100.48h-1Zm0-41.74v354.73h1V58.74h-1Zm0,0v354.73h1V58.74h-1Zm0,0v354.73h1V58.74h-1Zm0,0v354.73h1V58.74h-1Zm0,0v354.73h1V58.74h-1Zm0,0v354.73h1V58.74h-1Zm0,0v354.73h1V58.74h-1Z"/>
          <path class="cls-1" d="m458.35,16.47v443.35h1V16.47h-1Zm0,0v442.35h1V16.47h-1Zm0,0v442.35h1V16.47h-1Zm0,0v442.35h1V16.47h-1Zm0,0v442.35h1V16.47h-1Zm0,0v442.35h1V16.47h-1Zm0,0v442.35h1V16.47h-1Zm0,1v441.35h1V17.47h-1Zm0,42.27v399.08h1V59.74h-1Zm0,40.74v358.34h1V100.48h-1Zm0,42.04v316.3h1V142.52h-1Zm0,66.42v122.75h1v-122.75h-1ZM479.01,0v500.55h1V0h-1Zm-20.66,372.73h1v-188.47h-1v188.47Zm0-143.12v82.01h1v-82.01h-1Zm0-229.61v500.55h1V0h-1Zm0,142.52v316.3h1V142.52h-1Zm0,0v316.3h1V142.52h-1Zm0-43.04v359.34h1V99.48h-1Zm0-40.74v400.08h1V58.74h-1Zm0-42.27v442.35h1V16.47h-1Zm0,0v442.35h1V16.47h-1Zm0,0v442.35h1V16.47h-1Zm0,0v442.35h1V16.47h-1Zm0,0v442.35h1V16.47h-1Zm0,0v442.35h1V16.47h-1Zm0,0v442.35h1V16.47h-1Z"/>
          <path class="cls-1" d="m500,16.47V0h-.92v499.55h1V16.47h-.08Zm0,0V0h-.92v499.55h1V16.47h-.08Zm0,0V0h-.92v499.55h1V16.47h-.08Zm0,0V0h-.92v499.55h1V16.47h-.08Zm0,0V0h-.92v499.55h1V16.47h-.08Zm0,0V0h-.92v499.55h1V16.47h-.08Zm0,0V0h-.92v499.55h1V16.47h-.08Zm0,0V0h-.92v499.55h1V16.47h-.08Zm0,0V0h-.92v499.55h1V16.47h-.08Zm0,0V0h-.92v499.55h1V16.47h-.08Zm0,0V0h-.92v499.55h1V16.47h-.08Zm0,0V0h-.92v499.55h1V16.47h-.08Zm0,0V0h-.92v500.55h1V16.47h-.08Zm0,0V0h-.92v499.55h1V16.47h-.08Zm0,0V0h-.92v499.55h1V16.47h-.08Zm0,0V0h-.92v499.55h1V16.47h-.08Zm0,0V0h-.92v499.55h1V16.47h-.08Zm0,0V0h-.92v499.55h1V16.47h-.08Zm0,0V0h-.92v499.55h1V16.47h-.08Zm0,0V0h-.92v499.55h1V16.47h-.08Zm0,0V0h-.92v499.55h1V16.47h-.08Zm0,0V0h-.92v499.55h1V16.47h-.08Zm0,0V0h-.92v499.55h1V16.47h-.08Zm0,0V0h-.92v499.55h1V16.47h-.08Z"/>
        </g>
      </g>
      <g>
        <g>
          <path class="cls-1" d="m16,16.47v1h442.35v-1H16Zm0,0v1h442.35v-1H16Zm1,0v1h441.35v-1H17Zm82.01,0v1h359.34v-1H99.01Zm43.04,0v1h316.3v-1H142.05Zm40.74,0v1h275.56v-1H182.79Zm45.35,0v1h230.21v-1h-230.21ZM0,16.47v1h500.08v-1H0Zm269.88,0v1h229.2v-1h-229.2Zm0,0v1h20.61v-1h-20.61Zm-40.74,0v1h229.21v-1h-229.21Zm-45.35,0v1h274.56v-1H183.79Zm-40.74,0v1h315.3v-1H143.05Zm-43.04,0v1h358.34v-1H100.01Zm-40.74,0v1h399.08v-1H59.27Zm-43.27,0v1h442.35v-1H16Zm0,0v1h442.35v-1H16Z"/>
          <path class="cls-1" d="m58.27,58.74v1h354.73v-1H58.27Zm0,0v1h354.73v-1H58.27Zm40.74,0v1h313.99v-1H99.01Zm84.78,0v1h229.21v-1h-229.21Zm86.09,0v1h143.12v-1h-143.12Zm0,0v1h143.12v-1h-143.12Zm0,0v1h143.12v-1h-143.12ZM0,58.74v1h500.08v-1H0Zm59.27,0v1h439.81v-1H59.27Zm0,0v1h439.81v-1H59.27ZM0,38.08v1h500.08v-1H0Zm59.27,20.66v1h439.81v-1H59.27Zm0,0v1h439.81v-1H59.27Zm0,0v1h439.81v-1H59.27Zm210.61,0v1h143.12v-1h-143.12Zm0,0v1h143.12v-1h-143.12Zm0,0v1h143.12v-1h-143.12Zm-40.74,0v1h183.86v-1h-183.86Zm-86.09,0v1h269.95v-1H143.05Zm-84.78,0v1h354.73v-1H58.27Zm0,0v1h354.73v-1H58.27Z"/>
          <path class="cls-1" d="m99.01,99.48v1h273.25v-1H99.01Zm0,0v1h273.25v-1H99.01Zm44.04,0v1h229.21v-1h-229.21Zm168.1,0v1h61.11v-1h-61.11Zm41.74,0v1h19.37v-1h-19.37Zm0,0v1h19.37v-1h-19.37Zm0,0v1h19.37v-1h-19.37ZM0,99.48v1h500.08v-1H0Zm59.27,0v1h439.81v-1H59.27Zm0,0v1h439.81v-1H59.27ZM0,78.81v1h500.08v-1H0Zm59.27,20.67v1h439.81v-1H59.27Zm0,0v1h439.81v-1H59.27Zm0,0v1h439.81v-1H59.27Zm293.62,0v1h19.37v-1h-19.37Zm0,0v1h19.37v-1h-19.37Zm0,0v1h19.37v-1h-19.37Zm-1,0v1h20.37v-1h-20.37Zm-122.75,0v1h143.12v-1h-143.12Zm-130.13,0v1h273.25v-1H99.01Zm0,0v1h273.25v-1H99.01Z"/>
        </g>
        <g>
          <path class="cls-1" d="m142.05,142.52v1h189.17v-1h-189.17Zm0,0v1h189.17v-1h-189.17Zm86.09,0v1h103.08v-1h-103.08Zm84.01,0v1h39.74v-1h-39.74Zm40.74,0v1h19.37v-1h-19.37Zm-40.74,0v1h60.11v-1h-60.11Zm60.11,0v1h40.74v-1h-40.74Zm0,0v1h40.74v-1h-40.74Zm-19.37-20.66v1h60.11v-1h-60.11Zm19.37,20.66v1h40.74v-1h-40.74Zm0,0v1h40.74v-1h-40.74Zm-60.11,0v1h60.11v-1h-60.11Zm60.11,0v1h40.74v-1h-40.74Zm0,0v1h40.74v-1h-40.74Zm-19.37-20.66v1h60.11v-1h-60.11Zm19.37,20.66v1h40.74v-1h-40.74Zm0,0v1h40.74v-1h-40.74Zm-60.11,0v1h60.11v-1h-60.11Zm-252.88,0v1h271.95v-1H59.27Zm0,0v1h439.81v-1H59.27Zm0,0v1h439.81v-1H59.27ZM0,121.86v1h500.08v-1H0Zm79.34,20.66v1h419.74v-1H79.34Zm-20.07,0v1h439.81v-1H59.27Zm353.73,0v1h86.08v-1h-86.08Zm-353.73,0v1h272.95v-1H59.27Zm312.99,0v1h86.09v-1h-86.09Zm0,0v1h86.09v-1h-86.09Zm-20.37-20.66v1h106.46v-1h-106.46Zm20.37,20.66v1h86.09v-1h-86.09Zm0,0v1h86.09v-1h-86.09Zm40.74,0v1h45.35v-1h-45.35Zm46.35-20.66v1h19.66v-1h-19.66ZM0,142.52v1h500.08v-1H0Zm352.89-20.66v1h19.37v-1h-19.37Zm-40.74,20.66v1h60.11v-1h-60.11Zm60.11,0v1h40.74v-1h-40.74Zm0,0v1h40.74v-1h-40.74Zm-19.37-20.66v1h60.11v-1h-60.11Zm19.37,20.66v1h40.74v-1h-40.74Zm0,0v1h40.74v-1h-40.74Zm-60.11,0v1h60.11v-1h-60.11Zm60.11,0v1h40.74v-1h-40.74Zm0,0v1h40.74v-1h-40.74Zm-19.37-20.66v1h60.11v-1h-60.11Zm19.37,20.66v1h40.74v-1h-40.74Zm0,0v1h40.74v-1h-40.74Zm-60.11,0v1h60.11v-1h-60.11Zm40.74-20.66v1h19.37v-1h-19.37Zm-40.74,20.66v1h60.11v-1h-60.11Zm0,0v1h19.07v-1h-19.07Zm-170.1,0v1h189.17v-1h-189.17Zm0,0v1h189.17v-1h-189.17Z"/>
          <path class="cls-1" d="m182.79,183.26v1h107.7v-1h-107.7Zm0,0v1h107.7v-1h-107.7Zm129.36-20.66v1h19.07v-1h-19.07Zm0,0v1h19.07v-1h-19.07Zm0,0v1h19.07v-1h-19.07Zm0,0v1h19.07v-1h-19.07Zm-21.66,20.66v1h40.73v-1h-40.73Zm21.66-20.66v1h19.07v-1h-19.07Zm0,0v1h19.07v-1h-19.07Zm0,0v1h19.07v-1h-19.07Zm19.07,0v1h81.78v-1h-81.78Zm0,20.66v1h41.04v-1h-41.04Zm-19.07-20.66v1h19.07v-1h-19.07Zm0,0v1h19.07v-1h-19.07Zm0,0v1h19.07v-1h-19.07Zm0,0v1h19.07v-1h-19.07Zm-21.66,20.66v1h40.73v-1h-40.73Zm21.66-20.66v1h19.07v-1h-19.07Zm0,0v1h19.07v-1h-19.07Zm0,0v1h19.07v-1h-19.07Zm19.07,0v1h81.78v-1h-81.78Zm0,20.66v1h41.04v-1h-41.04Zm-19.07-20.66v1h19.07v-1h-19.07Zm0,0v1h19.07v-1h-19.07Zm0,0v1h19.07v-1h-19.07Zm0,0v1h19.07v-1h-19.07Zm-21.66,20.66v1h40.73v-1h-40.73Zm21.66-20.66v1h19.07v-1h-19.07Zm0,0v1h19.07v-1h-19.07Zm0,0v1h19.07v-1h-19.07Zm100.85,20.66v1h45.35v-1h-45.35Zm0,0v1h45.35v-1h-45.35Zm-81.78-20.66v1h127.13v-1h-127.13Zm0,20.66v1h102.44v-1h-102.44Zm81.78,0v1h45.35v-1h-45.35Zm-122.51,0v1h21.66v-1h-21.66Zm-211.15,0v1h211.15v-1H79.34Zm20.67,0v1h212.14v-1H100.01Zm312.99,0v1h86.08v-1h-86.08Zm-312.99,0v1h212.14v-1H100.01Zm312.99,0v1h86.08v-1h-86.08ZM0,162.6v1h500.08v-1H0Zm100.01,20.66v1h399.07v-1H100.01Zm312.99,0v1h86.08v-1h-86.08Zm-312.99,0v1h212.14v-1H100.01Zm-20.67,0v1h232.81v-1H79.34Zm333.66,0v1h86.08v-1h-86.08Zm0,0v1h86.08v-1h-86.08Zm-100.85-20.66v1h186.93v-1h-186.93Zm19.07,20.66v1h167.86v-1h-167.86Zm81.78,0v1h86.08v-1h-86.08Zm-81.78-20.66v1h41.04v-1h-41.04Zm0,20.66v1h41.04v-1h-41.04ZM0,183.26v1h500.08v-1H0Zm413,0v1h45.35v-1h-45.35Zm0,0v1h45.35v-1h-45.35Zm-100.85-20.66v1h146.2v-1h-146.2Zm19.07,20.66v1h102.44v-1h-102.44Zm81.78,0v1h45.35v-1h-45.35Zm-122.51,0v1h21.66v-1h-21.66Zm122.51,0v1h45.35v-1h-45.35Zm0,0v1h45.35v-1h-45.35Zm-81.78-20.66v1h127.13v-1h-127.13Zm0,20.66v1h102.44v-1h-102.44Zm81.78,0v1h45.35v-1h-45.35Zm-122.51,0v1h21.66v-1h-21.66Zm122.51,0v1h45.35v-1h-45.35Zm0,0v1h45.35v-1h-45.35Zm-81.78-20.66v1h127.13v-1h-127.13Zm0,20.66v1h102.44v-1h-102.44Zm81.78,0v1h45.35v-1h-45.35Zm-100.85-20.66v1h19.07v-1h-19.07Zm0,0v1h19.07v-1h-19.07Zm0,0v1h19.07v-1h-19.07Zm0,0v1h19.07v-1h-19.07Zm-21.66,20.66v1h40.73v-1h-40.73Zm21.66-20.66v1h19.07v-1h-19.07Zm0,0v1h19.07v-1h-19.07Zm0,0v1h19.07v-1h-19.07Zm19.07,0v1h81.78v-1h-81.78Zm0,20.66v1h41.04v-1h-41.04Zm-19.07-20.66v1h19.07v-1h-19.07Zm0,0v1h19.07v-1h-19.07Zm0,0v1h19.07v-1h-19.07Zm0,0v1h19.07v-1h-19.07Zm-21.66,20.66v1h40.73v-1h-40.73Zm21.66-20.66v1h19.07v-1h-19.07Zm0,0v1h19.07v-1h-19.07Zm0,0v1h19.07v-1h-19.07Zm19.07,0v1h41.04v-1h-41.04Zm0,20.66v1h41.04v-1h-41.04Zm-19.07-20.66v1h19.07v-1h-19.07Zm0,0v1h19.07v-1h-19.07Zm0,0v1h19.07v-1h-19.07Zm0,0v1h19.07v-1h-19.07Zm-21.66,20.66v1h40.73v-1h-40.73Zm21.66-20.66v1h19.07v-1h-19.07Zm0,0v1h19.07v-1h-19.07Zm0,0v1h19.07v-1h-19.07Zm-232.81,20.66v1h211.15v-1H79.34Zm20.67,0v1h212.14v-1H100.01Zm0,0v1h212.14v-1H100.01ZM0,162.6v1h331.22v-1H0Zm100.01,20.66v1h231.21v-1H100.01Zm0,0v1h212.14v-1H100.01Zm-20.67,0v1h232.81v-1H79.34Zm20.67,0v1h190.48v-1H100.01Zm83.78,0v1h106.7v-1h-106.7Zm-1,0v1h107.7v-1h-107.7Z"/>
          <path class="cls-1" d="m228.14,228.61v1h20.07v-1h-20.07Zm0,0v1h20.07v-1h-20.07Zm20.07,0v1h42.28v-1h-42.28ZM0,207.94v1h332.22v-1H0Zm249.21,20.67v1h41.28v-1h-41.28ZM0,207.94v1h413v-1H0Zm249.21,20.67v1h41.28v-1h-41.28ZM0,207.94v1h458.35v-1H0Zm249.21,20.67v1h41.28v-1h-41.28ZM0,207.94v1h458.35v-1H0Zm249.21,20.67v1h41.28v-1h-41.28Zm209.14,0v1h40.73v-1h-40.73ZM0,207.94v1h500.08v-1H0Zm458.35,20.67v1h40.73v-1h-40.73Zm0,0v1h40.73v-1h-40.73Zm-188.47-20.67v1h229.2v-1h-229.2Zm188.47,20.67v1h40.73v-1h-40.73Zm-167.86-20.67v1h122.51v-1h-122.51Zm0,0v1h167.86v-1h-167.86ZM0,228.61v1h500.08v-1H0Zm413-19.67v-1h-121.51v1h121.51Zm-122.51-1v1h167.86v-1h-167.86Zm167.86,20.67v1h40.73v-1h-40.73Zm-188.47-20.67v1h229.2v-1h-229.2Zm188.47,20.67v1h40.73v-1h-40.73Zm-209.14,0v1h41.28v-1h-41.28ZM0,207.94v1h458.35v-1H0Zm249.21,20.67v1h41.28v-1h-41.28ZM0,207.94v1h458.35v-1H0Zm249.21,20.67v1h41.28v-1h-41.28ZM0,207.94v1h413v-1H0Zm249.21,20.67v1h41.28v-1h-41.28ZM0,207.94v1h372.26v-1H0Zm249.21,20.67v1h41.28v-1h-41.28ZM0,207.94v1h331.22v-1H0Zm228.14,20.67v1h20.07v-1h-20.07Z"/>
          <path class="cls-1" d="m229.14,248.68v1h19.07v-1h-19.07Zm-45.35,0v1h106.7v-1h-106.7Zm64.42,0v1h42.28v-1h-42.28Zm210.14,20.67v1h40.73v-1h-40.73ZM0,248.68v1h500.08v-1H0Zm458.35,20.67v1h40.73v-1h-40.73Zm-188.47-20.67v1h229.2v-1h-229.2Zm0,0v1h188.47v-1h-188.47Zm0,0v1h188.47v-1h-188.47ZM0,269.35v1h500.08v-1H0Zm458.35-19.67v-1h-188.47v1h188.47Zm-188.47-1v1h188.47v-1h-188.47Zm188.47,20.67v1h40.73v-1h-40.73Zm-188.47-20.67v1h229.2v-1h-229.2Zm-61.41,0v1h82.02v-1h-82.02Zm0,0v1h40.74v-1h-40.74Z"/>
          <path class="cls-1" d="m183.79,290.96v1h106.7v-1h-106.7Zm-40.74,0v1h188.17v-1h-188.17Zm65.42,0v1h122.75v-1h-122.75Zm-208.47,0v1h500.08v-1H0Zm183.79,0v1h315.29v-1H183.79Zm86.09,0v1h229.2v-1h-229.2Zm0,0v1h188.47v-1h-188.47ZM0,311.62v1h500.08v-1H0Zm458.35-19.66v-1h-188.47v1h188.47Zm-188.47-1v1h188.47v-1h-188.47Zm-40.74,0v1h269.94v-1H229.14Zm-86.09,0v1h188.17v-1h-188.17Zm39.74,0v1h108.7v-1h-108.7Z"/>
          <path class="cls-1" d="m143.05,331.69v1h188.17v-1h-188.17Zm-43.04,0v1h272.25v-1H100.01Zm-100.01,0v1h372.26v-1H0Zm0,0v1h500.08v-1H0Zm100.01,0v1h399.07v-1H100.01Zm22.38,0v1h376.69v-1H122.39Zm40.74,0v1h335.95v-1H163.13ZM0,352.36v1h500.08v-1H0Zm458.35-19.67v-1H183.79v1h274.56Zm-315.3-1v1h356.03v-1H143.05Zm-43.04,0v1h399.07v-1H100.01Zm0,0v1h272.25v-1H100.01Zm42.04,0v1h190.17v-1h-190.17Z"/>
        </g>
        <g>
          <path class="cls-1" d="m100.01,372.73v1h272.25v-1H100.01Zm-40.74,0v1h353.73v-1H59.27Zm-59.27,0v1h413v-1H0Zm0,0v1h500.08v-1H0Zm59.27,0v1h439.81v-1H59.27Zm20.07,0v1h419.74v-1H79.34Zm20.67,0v1h399.07v-1H100.01ZM0,393.4v1h500.08v-1H0Zm499.08-19.67v-1H100.01v1h399.07Zm-399.07-1v1h399.07v-1H100.01Zm-40.74,0v1h439.81v-1H59.27Zm0,0v1h353.73v-1H59.27Zm39.74,0v1h274.25v-1H99.01Z"/>
          <path class="cls-1" d="m59.27,413.47v1h353.73v-1H59.27Zm-42.27,0v1h441.35v-1H17Zm-17,0v1h458.35v-1H0Zm0,0v1h500.08v-1H0Zm59.27,0v1h439.81v-1H59.27Zm0,0v1h439.81v-1H59.27Zm0,0v1h439.81v-1H59.27ZM0,434.13v1h500.08v-1H0Zm499.08-19.66v-1H59.27v1h439.81Zm-439.81-1v1h439.81v-1H59.27Zm0,0v1h439.81v-1H59.27Zm-42.27,0v1h441.35v-1H17Zm41.27,0v1h355.73v-1H58.27Z"/>
          <path class="cls-1" d="m17,458.82v1h441.35v-1H17Zm-17,0v1h499.08v-1H0Zm0,0v1h500.08v-1H0Zm59.27,0v1h439.81v-1H59.27Zm0,0v1h439.81v-1H59.27Zm0,0v1h439.81v-1H59.27ZM0,479.48v1h500.08v-1H0Zm499.08-19.66v-1H59.27v1h439.81Zm-439.81-1v1h439.81v-1H59.27Zm0,0v1h439.81v-1H59.27Zm-59.27,0v1h499.08v-1H0Zm16,0v1h443.35v-1H16Z"/>
          <path class="cls-1" d="m0,499.55v.45h16v.55h484.08v-1H0Zm0,0v.45h16v.55h484.08v-1H0Z"/>
        </g>
      </g>
    </g>
  </g>
</svg>