<?xml version="1.0" encoding="UTF-8"?>
<svg id="Layer_2" data-name="Layer 2" xmlns="http://www.w3.org/2000/svg" viewBox="0 0 24.38 20.66">
  <defs>
    <style>
      .cls-1 {
        fill: #394f4f;
        stroke-width: 0px;
      }
    </style>
  </defs>
  <g id="OBJECTS">
    <g>
      <path class="cls-1" d="m11.87,20.56c-2.22.16-5.09.11-7.96-.07-2.42-.15-3.18-.9-3.54-3.27-.24-1.56,0-3.07.06-4.6.04-1.09.98-1.27,1.84-1.26,1.87.02,3.74.14,5.61.19,4.41.12,8.83-.02,13.23.26.67.04,1.33.06,1.96.32.86.35,1.32.98,1.3,1.93-.02,1.04,0,2.08-.08,3.12-.16,2.14-1,2.86-3.17,3.06-2.87.28-5.74.22-9.25.32Zm-1.99-2c3.06.13,6.34-.11,9.63-.23q2.65-.1,2.72-2.76c.04-1.56.01-1.56-1.57-1.66-5.66-.35-11.34-.01-17-.41-2.15-.15-2.15-.09-1.9,2.1.05.46.07.91.13,1.37.15,1.07.74,1.61,1.86,1.6,1.96-.02,3.92,0,6.12,0Z"/>
      <path class="cls-1" d="m6.63,0c4.99.27,9.98.54,14.97.82,1.51.09,2.19.76,2.17,2.33-.01,1.2-.17,2.41-.38,3.6-.31,1.71-1.01,2.26-2.77,2.19-3.91-.17-7.82-.48-11.73-.52-2.37-.02-4.75-.14-7.12-.19-.95-.02-1.5-.47-1.64-1.38-.29-1.85-.05-3.66.59-5.4C1.05.52,1.78.08,2.75.07c1.29-.02,2.58,0,3.88,0v-.07Zm4.97,6.69s0,0,0-.01c2.62,0,5.25-.05,7.87.02,1.71.05,1.78.07,1.97-1.68.03-.25.02-.5.06-.75.14-.95-.23-1.34-1.22-1.39-4.95-.22-9.89-.54-14.83-.73-3.2-.12-3.52.29-3.34,3.54,0,.04,0,.08,0,.12-.03.71.31.9,1,.89,2.83-.04,5.66-.02,8.49-.02Z"/>
    </g>
  </g>
</svg>