<?xml version="1.0" encoding="UTF-8"?>
<svg id="Layer_2" data-name="Layer 2" xmlns="http://www.w3.org/2000/svg" viewBox="0 0 22.91 22.68">
  <defs>
    <style>
      .cls-1 {
        fill: #394f4f;
        stroke-width: 0px;
      }
    </style>
  </defs>
  <g id="OBJECTS">
    <g>
      <path class="cls-1" d="m18.62,2.31c.87.03,1.42.55,1.96,1.07,2.49,2.37,2.54,4.05.15,6.46-4.34,4.4-9.19,8.19-14.15,11.86-1.55,1.15-2.52.96-3.72-.58-.84-1.09-1.65-2.2-2.43-3.32-.79-1.14-.48-1.89.64-2.67,2.86-2.01,5.67-4.08,8.45-6.19,2.45-1.86,4.85-3.8,7.27-5.71.56-.45,1.14-.85,1.83-.9ZM5.05,19.95c.36-.23.72-.43,1.05-.67,3.46-2.61,6.81-5.35,10.06-8.21,1.3-1.15,2.75-2.17,3.71-3.68.66-1.04-.17-1.61-.68-2.27-.56-.71-1.02-.18-1.47.17-2.76,2.21-5.59,4.34-8.53,6.32-2.07,1.39-4.16,2.77-6.23,4.17-.32.21-.87.4-.5.94.68.99,1.42,1.95,2.14,2.92.09.12.26.19.44.32Z"/>
      <path class="cls-1" d="m10.01,4.52c.03,2.15-1.88,4.04-4.08,4.03-2.22-.01-4.08-1.67-4.14-3.69C1.72,2.77,4.07.03,5.94,0c2.17-.03,4.03,2.04,4.07,4.52Zm-2.07,0c-.04-1.36-1.04-2.56-2.11-2.53-1.05.03-2.18,1.34-2.17,2.53,0,1.13,1.01,2,2.28,1.97,1.1-.02,2.04-.94,2.01-1.97Z"/>
      <path class="cls-1" d="m22.91,18.84c-.02,2.21-1.9,3.87-4.34,3.84-1.75-.02-2.98-1.38-2.99-3.31,0-2.18,2-4.06,4.37-4.07,1.57,0,2.98,1.68,2.96,3.54Zm-4.14,1.7c1.14.03,2.02-.7,2.04-1.69.02-.88-.83-2.05-1.47-2.03-.76.03-1.71,1.2-1.73,2.17-.02.8.13,1.51,1.15,1.54Z"/>
    </g>
  </g>
</svg>